<svg width="32.000000" height="32.000000" viewBox="0 0 32 32" fill="none" xmlns="http://www.w3.org/2000/svg" xmlns:xlink="http://www.w3.org/1999/xlink">
	<desc>
			Created with Pixso.
	</desc>
	<defs>
		<clipPath id="clip13086_87">
			<rect id="Favicon / 32" rx="8.000000" width="32.000000" height="32.000000" fill="white" fill-opacity="0"/>
		</clipPath>
	</defs>
	<rect id="Favicon / 32" rx="8.000000" width="32.000000" height="32.000000" fill="#EEEEEE" fill-opacity="1.000000"/>
	<g clip-path="url(#clip13086_87)">
		<path id="Vector" d="M24.632 17.4405C24.5458 15.1708 24.2015 12.9012 24.2015 10.6315C24.2015 8.78217 24.5458 6.84875 23.8572 5.08347C23.8572 4.91534 23.9432 4.66316 23.9432 4.49504C24.1154 3.57037 21.1024 4.07474 20.672 4.91534C20.4138 5.16753 20.2416 5.41972 20.3276 5.75596C20.3276 5.84002 20.4138 5.92408 20.4138 6.00814C19.8112 8.6981 19.0364 11.3881 18.1755 13.994C17.8312 15.0027 17.4008 16.0114 17.0565 17.0202C16.5399 16.0955 16.0234 15.1708 15.593 14.1621C14.3878 11.2199 13.3549 8.27779 11.8914 5.50378C12.0636 4.24286 9.13672 4.32692 8.53406 5.50378C7.84546 6.93282 7.93152 8.36186 8.1897 9.95902C8.448 11.7243 8.53406 13.4055 8.53406 15.1708C8.53406 18.5333 8.87842 21.8957 8.87842 25.2582C8.53406 25.5944 8.448 26.0147 8.79236 26.435C8.96448 26.6031 9.13672 26.7713 9.30884 26.9394C10.0836 27.5278 12.3218 27.0235 12.3218 25.8466C12.3218 22.316 12.0636 18.8695 11.9774 15.3389C11.9774 15.0027 11.9774 14.6665 11.9774 14.3302C12.0636 14.4143 12.0636 14.5824 12.1497 14.6665C12.6661 16.0114 13.2687 17.3564 14.0435 18.6173C14.8182 19.8783 15.1626 21.2232 15.593 22.5682C15.4209 22.7363 15.3347 22.9885 15.4209 23.1566C15.4209 23.3248 15.507 23.4088 15.6791 23.4929C16.1956 23.9973 17.3147 23.7451 17.8312 23.4929C18.0895 23.4088 18.3478 23.2407 18.5199 23.1566C18.7782 22.9885 19.2947 22.5682 19.1224 22.1479C19.1224 22.0638 19.0364 21.9798 19.0364 21.8957C19.4668 20.8029 19.639 19.7101 19.8972 18.5333C20.1555 17.3564 20.5859 16.1796 21.0164 15.0027C21.1024 15.5071 21.1024 16.0955 21.1885 16.5999C21.3607 18.7855 21.1885 20.887 21.1885 23.0726C21.1885 23.8291 21.2747 24.4176 21.3607 25.1741C21.4468 25.4263 21.7051 26.6872 21.6189 26.7713C21.1024 27.2756 21.2747 27.8641 21.9633 27.9481C22.738 28.1163 23.7711 27.8641 24.3737 27.3597C25.4066 26.435 24.8901 24.9219 24.718 23.7451C24.2015 21.7276 24.632 19.4579 24.632 17.4405Z" fill="#000000" fill-opacity="1.000000" fill-rule="nonzero"/>
	</g>
</svg>
