<svg width="19.696152" height="17.070068" viewBox="0 0 19.6962 17.0701" fill="none" xmlns="http://www.w3.org/2000/svg" xmlns:xlink="http://www.w3.org/1999/xlink">
	<desc>
			Created with Pixso.
	</desc>
	<defs/>
	<path id="telegram" d="M19.4608 0.152832C19.6393 0.302246 19.7255 0.534912 19.6872 0.764404L17.0611 16.5215C17.0244 16.7412 16.8789 16.9272 16.6745 17.0159C16.47 17.1045 16.2346 17.0833 16.0493 16.9597L8.17082 11.7075C8.01772 11.6055 7.91446 11.4436 7.88623 11.262C7.858 11.0801 7.90738 10.8948 8.02234 10.751L10.633 7.48779L6.27303 10.3943C6.077 10.5251 5.82596 10.5408 5.61523 10.4353L0.36293 7.80908C0.127686 7.69165 -0.0146484 7.44482 0.00120544 7.18237C0.0170593 6.91992 0.188049 6.69214 0.43573 6.60352L18.8188 0.0383301C19.038 -0.0400391 19.2822 0.00366211 19.4608 0.152832ZM2.32626 7.32275L5.86168 9.09058L13.4231 4.04956C13.6925 3.86987 14.0525 3.91357 14.2712 4.1521C14.49 4.39062 14.5022 4.75317 14.3 5.00586L9.49503 11.0122L15.9328 15.304L18.2083 1.65063L2.32626 7.32275Z" fill="#231F20" fill-opacity="1.000000" fill-rule="evenodd"/>
</svg>
