<svg width="26.962967" height="17.000000" viewBox="0 0 26.963 17" fill="none" xmlns="http://www.w3.org/2000/svg" xmlns:xlink="http://www.w3.org/1999/xlink">
	<desc>
			Created with Pixso.
	</desc>
	<defs/>
	<path id="vkontakte" d="M0 2.33887C0 1.48364 0.515106 1.02271 1.54531 0.955566L5.51515 0.980713C5.78159 0.980713 5.95921 1.10645 6.04802 1.35791C6.45654 2.61548 6.91393 3.70093 7.42014 4.61475C7.92637 5.52832 8.58801 6.58032 9.40507 7.77075C9.47611 7.92163 9.59157 7.99707 9.75143 7.99707C9.87576 7.99707 9.97346 7.93848 10.0445 7.82104L10.1244 7.54443L10.1511 3.19385C10.1511 2.89209 10.0756 2.69092 9.92461 2.59033C9.77363 2.48975 9.49387 2.41431 9.08534 2.36401C8.76562 2.31372 8.60577 2.12915 8.60577 1.81055C8.60577 1.74365 8.61465 1.69336 8.63241 1.65967C9.00542 0.570068 10.0711 0.0251465 11.8296 0.0251465L13.3216 0C13.9966 0 14.5561 0.15918 15.0001 0.477783C15.4442 0.796387 15.6662 1.29932 15.6662 1.98657L15.6662 7.69531C15.7906 7.77905 15.906 7.82104 16.0126 7.82104C16.279 7.82104 16.5099 7.67017 16.7053 7.36841C18.6591 4.78638 19.716 3.05957 19.8759 2.18799C19.8759 2.17114 19.8936 2.12915 19.9291 2.06201C20.0535 1.81055 20.2577 1.59277 20.5419 1.4082C20.8261 1.22388 21.0748 1.09814 21.2879 1.03101C21.359 0.997559 21.4389 0.980713 21.5277 0.980713L25.6574 0.980713L25.9239 1.00586C26.2791 1.00586 26.5544 1.16528 26.7498 1.48364C26.8209 1.58423 26.8697 1.69336 26.8964 1.81055C26.923 1.92798 26.9408 2.04541 26.9496 2.16284C26.9585 2.28003 26.963 2.34717 26.963 2.36401L26.963 2.54004C26.8386 3.22729 26.5233 3.96069 26.0171 4.74048C25.5109 5.52002 24.867 6.3623 24.0855 7.26782C23.304 8.1731 22.8155 8.76831 22.6201 9.05322C22.4603 9.25439 22.3803 9.43896 22.3803 9.60645C22.3803 9.74072 22.4514 9.8916 22.5935 10.0591L26.4834 14.6863C26.6965 14.9546 26.8031 15.248 26.8031 15.5667C26.8031 15.9521 26.6432 16.2708 26.3235 16.5222C26.0038 16.7737 25.6219 16.9163 25.1779 16.9497L24.7249 16.9749L20.6752 16.9749C20.6574 16.9749 20.6219 16.979 20.5686 16.9873C20.5153 16.9958 20.4798 17 20.462 17C20.0712 17 19.7071 16.8408 19.3696 16.5222C19.2453 16.3882 18.4105 15.3989 16.8652 13.5547C16.7764 13.4373 16.652 13.3284 16.4922 13.2278C16.4211 13.4961 16.3279 13.8816 16.2124 14.3845C16.097 14.8877 16.0126 15.248 15.9593 15.4661L15.8794 15.8936C15.7018 16.4802 15.3287 16.8323 14.7604 16.9497L14.3874 16.9749L11.7763 16.9749C10.3021 16.9749 8.83224 16.3379 7.36686 15.0637C5.90148 13.7896 4.58264 12.1423 3.41033 10.1221C2.23803 8.10181 1.14566 5.75049 0.133217 3.06812C0.0444031 2.8501 0 2.60693 0 2.33887ZM16.0126 8.85205C15.6396 8.85205 15.3021 8.75562 15.0001 8.56299C14.6982 8.37012 14.5472 8.10596 14.5472 7.77075L14.5472 1.98657C14.5472 1.65137 14.4584 1.41235 14.2808 1.27002C14.1032 1.12744 13.7923 1.05615 13.3483 1.05615L11.8296 1.10645C11.0658 1.10645 10.4886 1.23218 10.0978 1.48364C10.8793 1.83569 11.2701 2.40576 11.2701 3.19385L11.2701 7.61987C11.2346 8.03906 11.0569 8.38672 10.7372 8.66357C10.4175 8.94019 10.0623 9.07837 9.67149 9.07837C9.13863 9.07837 8.7301 8.83521 8.44591 8.34912C7.06046 6.37085 6.03026 4.49316 5.35529 2.71606L5.1155 2.06201L1.57195 2.03687C1.34104 2.03687 1.21227 2.04956 1.18562 2.07471C1.15898 2.09985 1.14566 2.17114 1.14566 2.28857C1.14566 2.43945 1.16342 2.59863 1.19894 2.76636L1.75845 4.17456C3.25047 7.81274 4.87128 10.6794 6.62085 12.7751C8.37042 14.8708 10.0889 15.9187 11.7763 15.9187L14.4406 15.9187C14.5472 15.9187 14.6271 15.8894 14.6804 15.8306C14.7337 15.772 14.7781 15.6587 14.8136 15.4912L14.8669 15.2397L15.3732 13.0266C15.5153 12.7249 15.6396 12.5237 15.7462 12.4231C15.9415 12.2388 16.1725 12.1465 16.4389 12.1465C16.8652 12.1465 17.3003 12.3896 17.7444 12.8757L20.0091 15.5918C20.1512 15.8096 20.3022 15.9187 20.462 15.9187L24.8581 15.9187C25.391 15.9187 25.6574 15.793 25.6574 15.5415C25.6574 15.4575 25.6308 15.3738 25.5775 15.29L21.7142 10.7383C21.4123 10.386 21.2613 10.0088 21.2613 9.60645C21.2613 9.2041 21.4034 8.8186 21.6876 8.44971C21.9185 8.1145 22.367 7.55688 23.0331 6.77734C23.6992 5.9978 24.2809 5.26855 24.7782 4.5896C25.2756 3.9104 25.6042 3.29443 25.764 2.74121L25.8439 2.41431C25.8262 2.38062 25.8173 2.32617 25.8173 2.25073C25.8173 2.17529 25.8084 2.1123 25.7907 2.06201L21.6077 2.06201C21.3412 2.16284 21.1281 2.31372 20.9682 2.51489L20.8084 2.99268C20.3643 4.14941 19.2009 5.93481 17.3181 8.34912C16.9451 8.68433 16.5099 8.85205 16.0126 8.85205Z" fill="#231F20" fill-opacity="1.000000" fill-rule="nonzero"/>
</svg>
