<svg width="24.000000" height="18.676270" viewBox="0 0 24 18.6763" fill="none" xmlns="http://www.w3.org/2000/svg" xmlns:xlink="http://www.w3.org/1999/xlink">
	<desc>
			Created with Pixso.
	</desc>
	<defs/>
	<path id="youtube" d="M15.8509 8.79272L10.6145 5.30176C10.5159 5.23682 10.4016 5.19995 10.2837 5.19458C10.1657 5.18945 10.0486 5.21606 9.9446 5.27197C9.84061 5.32788 9.75369 5.41089 9.69302 5.51221C9.63235 5.61353 9.60022 5.72925 9.60001 5.84741L9.60001 12.8291C9.60013 12.948 9.63271 13.0649 9.69421 13.1667C9.75572 13.2686 9.84384 13.3518 9.9491 13.4072C10.0524 13.4631 10.1691 13.4895 10.2864 13.4836C10.4037 13.478 10.5172 13.4402 10.6145 13.3745L15.8509 9.88354C15.9409 9.82397 16.0148 9.74292 16.0658 9.64771C16.1169 9.55249 16.1436 9.44629 16.1436 9.33813C16.1436 9.23022 16.1169 9.12378 16.0658 9.02856C16.0148 8.93359 15.9409 8.85254 15.8509 8.79272ZM10.9091 11.6072L10.9091 7.06909L14.3127 9.33813L10.9091 11.6072ZM23.3891 3.0437C23.2942 2.67554 23.1131 2.33521 22.8609 2.05054C22.6086 1.76611 22.2924 1.54565 21.9382 1.40723C18.2182 -0.0217285 12.2509 0 12 0C11.7491 0 5.78181 -0.0217285 2.06181 1.40723C1.70764 1.54565 1.3914 1.76611 1.13914 2.05054C0.886887 2.33521 0.705841 2.67554 0.610916 3.0437C0.327271 4.11279 0 6.07642 0 9.33813C0 12.6001 0.327271 14.5637 0.610916 15.6328C0.705841 16.001 0.886887 16.3413 1.13914 16.6257C1.3914 16.9104 1.70764 17.1309 2.06181 17.269C5.78181 18.6982 11.7491 18.6763 12 18.6763L12.0764 18.6763C12.8291 18.6763 18.3927 18.6328 21.9382 17.269C22.2924 17.1309 22.6086 16.9104 22.8609 16.6257C23.1131 16.3413 23.2942 16.001 23.3891 15.6328C23.6727 14.5637 24 12.6001 24 9.33813C24 6.07642 23.6727 4.11279 23.3891 3.0437ZM22.1236 15.3054C22.0807 15.4719 21.999 15.626 21.8853 15.7549C21.7715 15.8838 21.6289 15.9839 21.4691 16.0474C17.9782 17.3892 12.0655 17.3672 12 17.3672C11.9345 17.3672 6.02182 17.3892 2.53091 16.0474C2.37106 15.9839 2.22845 15.8838 2.11472 15.7549C2.00096 15.626 1.9193 15.4719 1.87636 15.3054C1.61455 14.3018 1.3091 12.4583 1.3091 9.33813C1.3091 6.21826 1.61455 4.37451 1.87636 3.37085C1.9193 3.20435 2.00096 3.05054 2.11472 2.92163C2.22845 2.79272 2.37106 2.69238 2.53091 2.62915C6.02182 1.28735 11.9345 1.30908 12 1.30908C12.0655 1.30908 17.9782 1.28735 21.4691 2.62915C21.6289 2.69238 21.7715 2.79272 21.8853 2.92163C21.999 3.05054 22.0807 3.20435 22.1236 3.37085C22.3855 4.37451 22.6909 6.21826 22.6909 9.33813C22.6909 12.4583 22.3855 14.3018 22.1236 15.3054Z" fill="#231F20" fill-opacity="1.000000" fill-rule="nonzero"/>
</svg>
