<svg width="55.000000" height="23.000000" viewBox="0 0 55 23" fill="none" xmlns="http://www.w3.org/2000/svg" xmlns:xlink="http://www.w3.org/1999/xlink">
	<desc>
			Created with Pixso.
	</desc>
	<defs/>
	<path id="Vector" d="M40.9467 5.75C37.307 4.75867 33.0607 4.0647 28.41 4.0647C25.478 4.0647 22.8493 4.26294 20.625 4.65955L13.75 0L0.101139 0L5.9651 6.14661L14.4577 6.14661C9.80697 7.73279 7.58272 9.61633 7.58272 9.61633L7.58272 13.3837C7.58272 13.3837 9.90811 15.2672 14.5588 16.8534L5.86396 16.8534L0 23L13.6489 23L20.5239 18.3405C22.8492 18.7371 25.3768 18.9354 28.3088 18.9354C32.8584 18.9354 37.1048 18.2415 40.8456 17.25C39.6324 15.4656 38.9246 13.5819 38.9246 11.4009C39.0257 9.41809 39.8345 7.53455 40.9467 5.75Z" fill="#63D1BB" fill-opacity="1.000000" fill-rule="nonzero"/>
	<path id="Vector" d="M44.4853 6.74121C43.1709 8.32739 42.4632 9.91357 42.4632 11.4998C42.4632 13.0861 43.1709 14.6722 44.4853 16.2584C50.9559 14.0774 55 11.4998 55 11.4998C55 11.4998 50.9559 8.92224 44.4853 6.74121Z" fill="#63D1BB" fill-opacity="1.000000" fill-rule="nonzero"/>
</svg>
