<svg width="33.000000" height="38.000000" viewBox="0 0 33 38" fill="none" xmlns="http://www.w3.org/2000/svg" xmlns:xlink="http://www.w3.org/1999/xlink">
	<desc>
			Created with Pixso.
	</desc>
	<defs/>
	<path id="icon-1.svg" d="M16.5 38C25.575 38 33 30.6451 33 21.6559C23.925 21.6559 16.5 28.9086 16.5 38ZM4.74375 16.6505C4.74375 19.2043 6.80625 21.1451 9.28125 21.1451C10.2094 21.1451 11.1375 20.8387 11.8594 20.328L11.8594 20.6344C11.8594 23.1882 13.9219 25.129 16.3969 25.129C18.975 25.129 20.9344 23.0861 20.9344 20.6344L20.9344 20.328C21.6562 20.8387 22.5844 21.1451 23.5125 21.1451C26.0906 21.1451 28.05 19.1022 28.05 16.6505C28.05 14.8118 27.0188 13.2795 25.4719 12.5646C27.0188 11.8495 28.05 10.3173 28.05 8.47852C28.05 5.92468 25.9875 3.98389 23.5125 3.98389C22.5844 3.98389 21.6562 4.29028 20.9344 4.80103L20.9344 4.49463C20.9344 1.94092 18.8719 0 16.3969 0C13.8187 0 11.8594 2.04297 11.8594 4.49463L11.8594 4.80103C11.1375 4.29028 10.2094 3.98389 9.28125 3.98389C6.70312 3.98389 4.74375 6.02686 4.74375 8.47852C4.74375 10.3173 5.775 11.8495 7.32188 12.5646C5.87812 13.2795 4.74375 14.8118 4.74375 16.6505ZM16.5 7.96777C19.0781 7.96777 21.0375 10.0107 21.0375 12.4624C21.0375 15.0161 18.975 16.957 16.5 16.957C13.9219 16.957 11.9625 14.9139 11.9625 12.4624C11.9625 10.0107 13.9219 7.96777 16.5 7.96777ZM0 21.6559C0 30.6451 7.425 38 16.5 38C16.5 28.9086 9.075 21.6559 0 21.6559Z" fill="#63D1BB" fill-opacity="1.000000" fill-rule="nonzero"/>
</svg>
