<svg width="47.000000" height="27.000000" viewBox="0 0 47 27" fill="none" xmlns="http://www.w3.org/2000/svg" xmlns:xlink="http://www.w3.org/1999/xlink">
	<desc>
			Created with Pixso.
	</desc>
	<defs/>
	<path id="Vector" d="M43.0665 0L3.93348 0C1.71459 0 0 1.68127 0 3.85718L0 23.1428C0 25.3187 1.71459 27 3.93348 27L43.0665 27C45.2854 27 47 25.3187 47 23.1428L47 3.85718C47 1.78027 45.1845 0 43.0665 0ZM3.02575 24.7252L3.02575 2.76929L43.5708 2.76929L43.5708 24.7252L3.02575 24.7252Z" fill="#63D1BB" fill-opacity="1.000000" fill-rule="nonzero"/>
	<path id="Vector" d="M6.95925 20.8684L39.6374 20.8684L39.6374 6.62659L6.95925 6.62659L6.95925 20.8684ZM23.5 8.50574C26.4249 8.50574 28.8455 10.8793 28.8455 13.7474C28.8455 16.6156 26.4249 18.9893 23.5 18.9893C20.5751 18.9893 18.1545 16.6156 18.1545 13.7474C18.1545 10.7804 20.5751 8.50574 23.5 8.50574Z" fill="#63D1BB" fill-opacity="1.000000" fill-rule="nonzero"/>
</svg>
