<svg width="34.999977" height="34.000244" viewBox="0 0 35 34.0002" fill="none" xmlns="http://www.w3.org/2000/svg" xmlns:xlink="http://www.w3.org/1999/xlink">
	<desc>
			Created with Pixso.
	</desc>
	<defs/>
	<path id="Vector" d="M0.305557 13.9528C-0.101852 16.0303 -0.101852 18.1079 0.305557 20.1854L4.48152 17.0197L0.305557 13.9528Z" fill="#63D1BB" fill-opacity="1.000000" fill-rule="nonzero"/>
	<path id="Vector" d="M24.852 1.58594C19.9631 -0.590454 14.2594 -0.590454 9.26857 1.98169L16.9075 7.52185L24.852 1.58594Z" fill="#63D1BB" fill-opacity="1.000000" fill-rule="nonzero"/>
	<path id="Vector" d="M34.528 13.062L29.6391 16.7224L34.6299 20.3829C35.1392 18.0085 35.1392 15.4364 34.528 13.062Z" fill="#63D1BB" fill-opacity="1.000000" fill-rule="nonzero"/>
	<path id="Vector" d="M9.37046 32.057C14.2594 34.5303 20.2687 34.7281 25.3613 32.1559L17.1113 26.1211L9.37046 32.057Z" fill="#63D1BB" fill-opacity="1.000000" fill-rule="nonzero"/>
	<path id="Vector" d="M8.04639 14.2488L1.73152 9.698C1.42596 10.3905 1.1204 11.083 0.916698 11.7755L6.31489 15.7328L8.04639 14.2488Z" fill="#63D1BB" fill-opacity="1.000000" fill-rule="nonzero"/>
	<path id="Vector" d="M18.9446 24.8348L27.3983 30.9686C27.7039 30.7708 28.0095 30.5729 28.2132 30.375C28.5187 30.1771 28.8243 29.8804 29.1298 29.5836L20.6761 23.4498L18.9446 24.8348Z" fill="#63D1BB" fill-opacity="1.000000" fill-rule="nonzero"/>
	<path id="Vector" d="M11.6112 11.578L4.07412 6.13684C3.56486 6.63147 3.15744 7.2251 2.75003 7.81873L9.77787 12.9631L11.6112 11.578Z" fill="#63D1BB" fill-opacity="1.000000" fill-rule="nonzero"/>
	<path id="Vector" d="M22.5094 22.1635L30.7595 28.1982C31.2688 27.7036 31.6762 27.11 32.0836 26.5165L24.2409 20.7784L22.5094 22.1635Z" fill="#63D1BB" fill-opacity="1.000000" fill-rule="nonzero"/>
	<path id="Vector" d="M15.176 8.90698L7.33339 3.16895C7.12969 3.26782 6.92598 3.4657 6.72228 3.5647C6.31487 3.86145 5.90746 4.1582 5.6019 4.55396L13.4446 10.1931L15.176 8.90698Z" fill="#63D1BB" fill-opacity="1.000000" fill-rule="nonzero"/>
	<path id="Vector" d="M26.0743 19.3936L33.2039 24.538C33.5095 23.8455 33.8151 23.252 34.1206 22.5593L27.9076 18.0085L26.0743 19.3936Z" fill="#63D1BB" fill-opacity="1.000000" fill-rule="nonzero"/>
	<path id="Vector" d="M26.8891 2.67419L0.916698 22.3616C1.1204 23.0541 1.42596 23.7466 1.73152 24.4391L28.7225 3.96033C28.2132 3.4657 27.6021 3.06995 26.8891 2.67419Z" fill="#63D1BB" fill-opacity="1.000000" fill-rule="nonzero"/>
	<path id="Vector" d="M31.2688 6.53235C30.9632 6.1366 30.6576 5.74084 30.3521 5.44409L2.85186 26.2196C3.05557 26.7144 3.36113 27.1101 3.66669 27.4069C3.76854 27.6047 3.97224 27.8026 4.0741 27.9015L31.778 7.12598C31.5743 6.9281 31.4725 6.73022 31.2688 6.53235Z" fill="#63D1BB" fill-opacity="1.000000" fill-rule="nonzero"/>
	<path id="Vector" d="M32.8984 8.90674L5.70373 29.4845C6.21299 29.9791 6.82411 30.4738 7.43522 30.8695L33.9169 10.8854C33.6114 10.1929 33.3058 9.50037 32.8984 8.90674Z" fill="#63D1BB" fill-opacity="1.000000" fill-rule="nonzero"/>
</svg>
