<svg width="33.000000" height="32.000000" viewBox="0 0 33 32" fill="none" xmlns="http://www.w3.org/2000/svg" xmlns:xlink="http://www.w3.org/1999/xlink">
	<desc>
			Created with Pixso.
	</desc>
	<defs/>
	<path id="icon-6.svg" d="M3.02752 32L15.6422 32L15.6422 18.2715L3.02752 18.2715L3.02752 32ZM31.3853 8.69141L24.0183 8.69141C24.5229 8.39502 25.0275 8.19751 25.4312 7.90112C27.0459 6.8147 27.8532 5.33325 27.8532 3.95068C27.8532 2.76538 27.2477 1.77783 26.4404 1.08643C25.633 0.39502 24.5229 0 23.4128 0C22.2018 0 20.9908 0.39502 20.0826 1.08643C18.5688 2.07397 17.4587 3.55566 16.6514 5.13574C16.6514 5.23462 16.5505 5.33325 16.5505 5.33325C16.2477 4.74072 15.945 4.14819 15.5413 3.55566C14.8349 2.56787 14.0275 1.67896 13.0183 1.08643C12.0092 0.493896 10.8991 0 9.68807 0C8.47706 0 7.36697 0.493896 6.45871 1.28394C5.65137 2.07397 5.04588 3.1604 5.04588 4.3457C5.04588 5.03711 5.2477 5.82715 5.65137 6.51855C6.25687 7.40747 7.06422 8.09888 8.27523 8.69141L1.61467 8.69141C0.706413 8.69141 0 9.38281 0 10.2715L0 16.0989L15.5413 16.0989L15.5413 8.69141L17.4587 8.69141L17.4587 16.0989L33 16.0989L33 10.2715C33 9.38281 32.2936 8.69141 31.3853 8.69141ZM8.88073 6.41968C8.27522 6.02466 7.87156 5.62964 7.66972 5.33325C7.46788 4.93823 7.36697 4.64209 7.36697 4.3457C7.36697 3.85181 7.56881 3.35791 8.0734 2.86426C8.47707 2.46924 9.08257 2.17285 9.68807 2.17285C10.3945 2.17285 11.1009 2.37036 11.7064 2.86426C12.7156 3.55566 13.7248 4.64185 14.3303 6.02466C14.633 6.71606 14.9358 7.40747 15.1376 8.09888C12.0092 7.80249 9.99082 7.11108 8.88073 6.41968ZM19.4771 4.8396C20.0826 4.04932 20.6881 3.35791 21.3945 2.96289C22.1009 2.46924 22.8073 2.27173 23.4128 2.27173C24.0183 2.27173 24.5229 2.46924 24.9266 2.76538C25.3303 3.06177 25.5321 3.45679 25.5321 3.95068C25.5321 4.44434 25.2294 5.23462 24.0183 6.02466C22.9083 6.8147 20.8899 7.70361 17.8624 8.29639C18.1651 7.11108 18.7706 5.82715 19.4771 4.8396ZM17.4587 32L30.0734 32L30.0734 18.2715L17.4587 18.2715L17.4587 32Z" fill="#63D1BB" fill-opacity="1.000000" fill-rule="nonzero"/>
</svg>
