<svg width="21.000000" height="18.000000" viewBox="0 0 21 18" fill="none" xmlns="http://www.w3.org/2000/svg" xmlns:xlink="http://www.w3.org/1999/xlink">
	<desc>
			Created with Pixso.
	</desc>
	<defs/>
	<g opacity="0.200000">
		<path id="basket.svg" d="M20.1884 6.85715L16.6377 6.85715L13.1884 0.380951C12.9855 0 12.5797 -0.0952454 12.174 0.0952454C11.7681 0.285706 11.6667 0.666656 11.8696 1.04761L15.0145 6.85715L5.78259 6.85715L8.92752 1.04761C9.13043 0.666656 8.92755 0.285706 8.6232 0.0952454C8.21741 -0.0952454 7.81161 0.0952148 7.6087 0.380951L4.15939 6.85715L0.811584 6.85715C0.405792 6.85715 0 7.14285 0 7.61905C0 8 0.304321 8.38095 0.811584 8.38095L1.0145 8.38095L1.92752 11.2381C1.72464 11.3333 1.62317 11.5238 1.62317 11.8095C1.62317 12.1905 1.92752 12.4762 2.33331 12.4762L4.05798 18L16.942 18L18.6667 12.4762C19.0724 12.4762 19.3768 12.1905 19.3768 11.8095C19.3768 11.619 19.2754 11.3333 19.0724 11.2381L19.9855 8.38095L20.1884 8.38095C20.5942 8.38095 21 8.09525 21 7.61905C21 7.14285 20.5942 6.85715 20.1884 6.85715ZM15.6232 16.4762L5.07248 16.4762L3.85507 12.381L16.942 12.381L15.6232 16.4762ZM17.2464 10.9524L3.34781 10.9524L2.53622 8.28574L18.058 8.28574L17.2464 10.9524Z" fill="#000000" fill-opacity="1.000000" fill-rule="nonzero"/>
	</g>
</svg>
