<svg width="26.899994" height="34.100098" viewBox="0 0 26.9 34.1001" fill="none" xmlns="http://www.w3.org/2000/svg" xmlns:xlink="http://www.w3.org/1999/xlink">
	<desc>
			Created with Pixso.
	</desc>
	<defs/>
	<path id="htmlacademy.svg" d="M13.6 0L13.5 0L0 1.3999L0 26.1001L13.5 34.1001L26.9 26.1001L26.9 1.3999L13.6 0ZM25 12.1001L13.5 5.30005L13.5 5.19995L13.4 5.19995L13.3 5.1001L13.3 5.19995L1.89999 12.1001L1.89999 3.1001L13.4 1.8999L25 3.1001L25 12.1001ZM13.4 6.80005L24.9 13.5L20.4 16.1001L13.3 11.8999L13.3 13.3L19.2 16.8L18.3 17.3L13.3 14.3L13.3 15.7L17.1 18L16.3 18.5L13.3 16.7L13.3 18.1001L15.2 19.2L13.4 20.3L2 13.6001L13.4 6.80005ZM1.89999 15.1001L13.3 21.8999L13.3 22.8999L5.39999 18.2L5.39999 19.6001L13.4 24.3999L13.4 25.5L5.39999 20.8L5.39999 22.2L13.4 27L21.5 22.1001L21.5 16.8999L24.9 14.8999L24.9 24.8999L13.4 31.8L1.89999 25L1.89999 15.1001Z" fill="#63D1BB" fill-opacity="1.000000" fill-rule="nonzero"/>
</svg>
