<svg width="40.000000" height="62.000000" viewBox="0 0 40 62" fill="none" xmlns="http://www.w3.org/2000/svg" xmlns:xlink="http://www.w3.org/1999/xlink">
	<desc>
			Created with Pixso.
	</desc>
	<defs/>
	<g opacity="0.500000">
		<path id="Vector" d="M15.162 37.7167C14.8627 38.7119 14.9625 39.9061 15.162 41.2994C15.6607 43.8869 16.8577 47.2705 17.556 50.9528L22.6433 50.9528C23.3415 47.3701 24.5385 43.9864 25.1371 41.2994C25.4363 39.9061 25.4363 38.6124 25.1371 37.7167C24.8378 36.821 24.2393 36.1244 23.142 35.4277L17.157 35.4277C15.96 36.1244 15.3615 36.821 15.162 37.7167Z" fill="#149080" fill-opacity="1.000000" fill-rule="nonzero"/>
		<path id="Vector" d="M26.9327 57.6211L13.1671 57.6211C11.8703 57.6211 10.8728 58.6163 10.8728 59.8105L10.8728 61.9999L13.1671 61.9999L26.9327 61.9999L29.227 61.9999L29.227 59.8105C29.227 58.6163 28.2295 57.6211 26.9327 57.6211Z" fill="#149080" fill-opacity="1.000000" fill-rule="nonzero"/>
		<path id="Vector" d="M34.015 2.18942L22.3441 2.18942C22.3441 0.995209 21.3466 0 20.0499 0C18.7531 0 17.7556 0.995209 17.7556 2.18942L6.08478 2.18942L0 27.5668C0.798004 27.0692 1.59602 26.5717 2.59352 26.5717C3.99004 26.5717 4.78802 27.3678 5.48628 27.9649C6.18454 28.562 6.68329 28.7611 6.88278 28.7611C7.18204 28.7611 7.68079 28.4625 8.37904 27.9649C9.0773 27.4673 9.97505 26.5717 11.2718 26.5717C12.5686 26.5717 13.4663 27.3678 14.1646 27.9649C14.8629 28.4625 15.3616 28.7611 15.6609 28.7611C15.7606 28.7611 15.9601 28.6616 16.2593 28.562C16.4588 28.4625 16.7581 28.164 17.1571 27.9649C17.6559 27.5668 18.2544 26.9697 19.1521 26.7707C19.4514 26.6712 19.7506 26.6712 20.0499 26.6712C21.3466 26.6712 22.2444 27.4673 22.9427 28.0645C23.6409 28.562 24.1396 28.8606 24.4389 28.8606C24.7382 28.8606 25.2369 28.562 25.8354 28.0645C26.5337 27.4673 27.4314 26.6712 28.7282 26.6712C30.1247 26.6712 30.9227 27.4673 31.6209 28.0645C31.9202 28.363 32.2195 28.562 32.5187 28.6616C32.7182 28.7611 32.9177 28.8606 33.1172 28.8606C33.4165 28.8606 33.9152 28.562 34.5137 27.9649C35.212 27.3678 36.1097 26.5717 37.4065 26.5717C38.404 26.5717 39.202 27.0692 40 27.5668L34.015 2.18942Z" fill="#149080" fill-opacity="1.000000" fill-rule="nonzero"/>
		<path id="Vector" d="M23.4415 53.1426L16.5587 53.1426C15.8604 53.1426 15.4614 53.6402 15.4614 54.2373C15.4614 54.8344 15.9602 55.332 16.5587 55.332L23.4415 55.332C24.1397 55.332 24.5387 54.8344 24.5387 54.2373C24.6385 53.6402 24.1397 53.1426 23.4415 53.1426Z" fill="#149080" fill-opacity="1.000000" fill-rule="nonzero"/>
		<path id="Vector" d="M20.0499 28.7598C19.9501 28.7598 19.7506 28.8593 19.4514 28.9588C19.2519 29.0583 19.0524 29.2574 18.8529 29.3569L18.8529 33.0391L21.1472 33.0391L21.1472 29.4564C20.6484 29.0583 20.2494 28.7598 20.0499 28.7598Z" fill="#149080" fill-opacity="1.000000" fill-rule="nonzero"/>
	</g>
</svg>
